<?xml version="1.0" standalone="no"?>
<!DOCTYPE svg PUBLIC "-//W3C//DTD SVG 20010904//EN"
 "http://www.w3.org/TR/2001/REC-SVG-20010904/DTD/svg10.dtd">
<svg version="1.0" xmlns="http://www.w3.org/2000/svg"
 width="256.000000pt" height="256.000000pt" viewBox="0 0 256.000000 256.000000"
 preserveAspectRatio="xMidYMid meet">
<metadata>
Created by potrace 1.11, written by Peter Selinger 2001-2013
</metadata>
<g transform="translate(0.000000,256.000000) scale(0.100000,-0.100000)"
fill="#000000" stroke="none">
<path d="M1426 2402 c-4 -4 -15 -7 -24 -7 -42 -2 -139 -55 -125 -68 3 -4 -2
-7 -12 -7 -10 0 -16 -3 -12 -6 14 -14 -45 -51 -120 -75 -94 -31 -214 -93 -293
-152 -60 -46 -68 -48 -89 -33 -12 9 -13 8 -6 -4 7 -12 6 -13 -7 -3 -8 7 -18
10 -21 6 -4 -3 -13 -1 -20 5 -7 7 -22 13 -33 15 -10 2 -27 7 -36 11 -9 4 -25
9 -35 11 -10 2 -19 4 -20 5 -2 2 -6 3 -10 4 -5 1 -14 5 -20 9 -8 5 -13 3 -13
-5 -1 -10 -4 -9 -13 2 -13 16 -131 21 -154 7 -7 -5 -17 -6 -22 -2 -5 3 -13 0
-16 -6 -4 -5 -13 -8 -21 -5 -8 3 -17 -1 -20 -9 -4 -8 -10 -13 -14 -10 -5 3
-14 0 -22 -7 -7 -7 -19 -14 -26 -16 -24 -5 -87 -76 -106 -120 -19 -42 -24
-105 -13 -174 3 -21 2 -38 -2 -38 -4 0 -8 -8 -9 -17 -4 -35 -8 -53 -15 -59
-11 -11 -8 -172 3 -179 6 -3 10 -15 10 -26 0 -11 7 -36 16 -57 8 -20 15 -39
16 -42 0 -3 9 -17 19 -31 10 -14 16 -29 13 -32 -3 -3 4 -8 15 -12 12 -3 19
-11 16 -16 -4 -5 1 -9 9 -9 9 0 16 -4 16 -8 0 -10 51 -36 64 -33 5 1 13 -3 17
-10 8 -13 11 -14 88 -24 48 -6 54 -9 57 -28 18 -113 27 -149 61 -242 51 -139
124 -248 245 -368 48 -48 93 -87 99 -87 5 0 7 -5 4 -10 -4 -6 -2 -9 3 -8 13 4
92 -44 92 -55 0 -4 4 -6 9 -2 5 3 17 -3 27 -12 10 -10 19 -17 21 -16 1 1 20
-5 40 -14 37 -16 48 -20 77 -26 8 -2 20 -8 28 -15 8 -6 17 -9 20 -7 3 3 17 1
32 -5 15 -5 45 -12 68 -15 22 -3 45 -8 50 -11 19 -12 327 -2 348 11 3 2 21 7
40 10 18 3 45 12 61 21 16 8 29 12 29 9 0 -3 13 1 29 9 16 9 31 12 35 9 3 -4
6 -2 6 3 0 10 69 40 83 36 4 -1 7 2 7 8 0 5 5 10 12 10 18 0 166 117 213 168
22 24 51 56 64 70 82 90 180 289 206 420 3 12 8 34 11 50 14 60 13 297 -1 365
-21 95 -59 205 -99 285 -119 235 -359 435 -611 507 -87 25 -107 34 -100 45 3
6 1 10 -4 10 -6 0 -11 5 -11 10 0 16 -47 60 -63 60 -7 0 -17 3 -21 7 -3 4 -12
8 -19 9 -61 9 -77 13 -85 18 -5 3 -12 2 -16 -2z"/>
</g>
</svg>
